# Blender 3.4.1
# www.blender.org
mtllib melon.mtl
o Cube
v 0.927138 -1.232977 -2.014501
v -1.153972 -1.232977 -1.928403
v 0.745192 -0.717920 0.092324
v -0.748878 -0.717920 0.154136
v 0.927138 1.232977 -2.014501
v -1.153972 1.232977 -1.928403
v 0.745192 0.717920 0.092324
v -0.748878 0.717920 0.154136
v -1.098475 1.000000 -0.929944
v 0.982634 -1.000000 -1.016042
v 0.982634 1.000000 -1.016042
v -1.098475 -1.000000 -0.929944
v -1.153972 -0.000000 -1.928403
v 0.141340 -0.176613 2.534725
v 0.400469 0.176613 2.300452
v 0.927138 -0.000000 -2.014501
v -2.675613 -1.232977 -0.998001
v -0.117189 -1.232977 -2.145730
v -0.004551 0.717920 -0.001888
v -0.004551 -0.717920 -0.001888
v -0.117189 1.232977 -2.145730
v -0.061692 -1.000000 -1.147272
v -0.061692 1.000000 -1.147272
v -0.117189 -0.000000 -2.145730
v 0.141340 0.176613 2.534725
v 2.503527 -1.232977 -1.427824
v 1.566708 -0.717920 0.662391
v 2.503527 1.232977 -1.427824
v 1.566708 0.717920 0.662391
v 2.126935 -1.000000 -0.221988
v 2.126935 1.000000 -0.221988
v 1.566708 0.000000 0.662391
v 2.503527 -0.000000 -1.427824
v 2.126935 0.000000 -0.221988
v -1.561424 -0.717920 0.815027
v -2.675613 1.232977 -0.998001
v -1.561424 0.717920 0.815027
v -2.230282 1.000000 -0.009380
v -2.230282 -1.000000 -0.009380
v -2.675613 -0.000000 -0.998001
v -1.561424 -0.000000 0.815027
v -2.230282 -0.000000 -0.009380
v 0.045320 0.428440 1.347618
v 0.492751 0.428440 1.403842
v 0.045320 -0.428440 1.347618
v -0.398879 -0.428440 1.440730
v -0.883790 0.000000 1.835137
v 0.492751 -0.428440 1.403842
v -0.398879 0.428440 1.440730
v 0.983015 0.428440 1.744046
v 0.983015 0.000000 1.744046
v 0.983015 -0.428440 1.744046
v -0.883790 -0.428440 1.835137
v -0.883790 0.428440 1.835137
v -0.142250 -0.176613 2.428083
v 0.400469 0.000000 2.300452
v -0.142250 0.000000 2.428083
v -0.500451 0.000000 2.205826
v 0.400469 -0.176613 2.300452
v -0.142250 0.176613 2.428083
v 0.141340 0.000000 2.534725
v 0.687489 0.176613 2.059447
v 0.687489 0.000000 2.059447
v 0.687489 -0.176613 2.059447
v -0.500451 -0.176613 2.205826
v -0.500451 0.176613 2.205826
vn 0.3488 -0.0000 -0.9372
vn 0.0436 -0.9772 0.2080
vn -0.0287 0.9731 0.2287
vn 0.1620 -0.9665 0.1992
vn -0.0302 -0.9702 0.2404
vn 0.1247 -0.0000 -0.9922
vn -0.0287 -0.9731 0.2287
vn 0.8800 -0.0000 0.4749
vn -0.0302 0.9702 0.2404
vn -0.8330 -0.0000 0.5533
vn -0.5217 -0.0000 -0.8532
vn 0.1352 0.9717 0.1938
vn -0.1484 0.9655 0.2139
vn -0.1315 0.9730 0.1895
vn -0.2052 -0.0000 -0.9787
vn 0.0496 0.9704 0.2365
vn 0.0471 -0.9733 0.2245
vn 0.0496 -0.9704 0.2365
vn 0.0471 0.9733 0.2245
vn -0.0265 -0.9772 0.2106
vn 0.8448 -0.0000 0.5351
vn 0.9545 -0.0000 0.2981
vn 0.1458 0.9729 0.1792
vn -0.0975 -0.9765 0.1922
vn -0.0975 0.9765 0.1922
vn -0.1484 -0.9655 0.2139
vn -0.7766 -0.0000 0.6300
vn -0.9118 -0.0000 0.4107
vn -0.0265 0.9772 0.2106
vn 0.1620 0.9665 0.1992
vn 0.1352 -0.9717 0.1938
vn 0.0653 -0.9452 0.3198
vn -0.0473 -0.9277 0.3704
vn -0.0042 0.9740 0.2263
vn -0.6951 -0.0000 0.7189
vn 0.7297 -0.0000 0.6837
vn -0.0473 0.9277 0.3704
vn -0.0042 -0.9741 0.2263
vn 0.1458 -0.9729 0.1792
vn -0.1315 -0.9730 0.1895
vn 0.0436 0.9772 0.2080
vn 0.6706 -0.0000 0.7418
vn -0.5272 -0.0000 0.8497
vn 0.6430 -0.0000 0.7658
vn -0.3520 -0.0000 0.9360
vn 0.0591 -0.9703 0.2344
vn 0.0591 0.9703 0.2344
vn 0.0653 0.9452 0.3198
vn -0.0000 -0.0000 1.0000
vt 0.625000 0.500000
vt 0.375000 0.500000
vt 0.625000 0.750000
vt 0.375000 0.750000
vt 0.625000 0.250000
vt 0.375000 0.250000
vt 0.625000 0.000000
vt 0.375000 0.000000
vt 0.375000 0.125000
vt 0.625000 0.625000
vt 0.625000 0.125000
vt 0.375000 0.625000
vt 0.375000 0.375000
vt 0.500000 0.750000
vt 0.625000 1.000000
vt 0.625000 0.000000
vt 0.625000 0.375000
vt 0.375000 0.500000
vt 0.500000 0.500000
vt 0.500000 0.000000
vt 0.500000 0.750000
vt 0.500000 0.250000
vt 0.500000 0.625000
vt 0.500000 0.125000
vt 0.500000 0.375000
vt 0.500000 1.000000
vt 0.500000 0.000000
vt 0.625000 0.500000
vt 0.625000 0.750000
vt 0.875000 0.500000
vt 0.625000 0.250000
vt 0.625000 0.000000
vt 0.875000 0.750000
vt 0.625000 0.625000
vt 0.875000 0.625000
vt 0.625000 0.125000
vt 0.750000 0.750000
vt 0.625000 0.375000
vt 0.750000 0.500000
vt 0.750000 0.625000
vt 0.375000 0.750000
vt 0.375000 0.250000
vt 0.125000 0.500000
vt 0.125000 0.750000
vt 0.375000 0.000000
vt 0.125000 0.625000
vt 0.375000 0.125000
vt 0.375000 0.625000
vt 0.250000 0.500000
vt 0.375000 0.375000
vt 0.250000 0.750000
vt 0.250000 0.625000
vt 0.500000 0.000000
vt 0.625000 0.000000
vt 0.500000 0.750000
vt 0.375000 0.750000
vt 0.250000 0.750000
vt 0.625000 0.750000
vt 0.375000 0.000000
vt 0.625000 0.000000
vt 0.875000 0.750000
vt 0.750000 0.750000
vt 0.625000 0.750000
vt 0.375000 0.750000
vt 0.125000 0.750000
vt 0.375000 0.000000
vt 0.375000 0.750000
vt 0.625000 0.875000
vt 0.375000 0.875000
vt 0.250000 0.750000
vt 0.375000 0.875000
vt 0.625000 0.750000
vt 0.375000 0.000000
vt 0.375000 1.000000
vt 0.500000 0.875000
vt 0.625000 0.000000
vt 0.625000 1.000000
vt 0.875000 0.750000
vt 0.625000 0.875000
vt 0.750000 0.750000
vt 0.625000 0.750000
vt 0.375000 0.750000
vt 0.125000 0.750000
vt 0.375000 1.000000
vt 0.375000 0.000000
s 0
usemtl Material
f 1/1/1 16/17/1 33/38/1 26/28/1
f 4/4/2 20/21/2 45/55/2 46/56/2
f 23/24/3 11/11/3 5/5/3 21/22/3
f 12/12/4 4/4/4 35/41/4 39/48/4
f 22/23/5 10/10/5 3/3/5 20/21/5
f 24/25/6 16/17/6 1/1/6 18/19/6
f 18/19/7 1/1/7 10/10/7 22/23/7
f 27/29/8 32/37/8 51/62/8 52/63/8
f 19/20/9 7/7/9 11/11/9 23/24/9
f 37/44/10 41/51/10 47/57/10 54/65/10
f 16/17/1 5/5/1 28/31/1 33/38/1
f 6/6/11 13/13/11 40/50/11 36/42/11
f 21/22/6 5/5/6 16/17/6 24/25/6
f 9/9/12 6/6/12 36/42/12 38/47/12
f 32/37/8 29/33/8 50/61/8 51/62/8
f 11/11/13 7/7/13 29/32/13 31/36/13
f 29/32/14 7/7/14 44/54/14 50/60/14
f 6/6/15 21/22/15 24/25/15 13/13/15
f 8/8/16 19/20/16 23/24/16 9/9/16
f 2/2/17 18/19/17 22/23/17 12/12/17
f 13/13/15 24/25/15 18/19/15 2/2/15
f 12/12/18 22/23/18 20/21/18 4/4/18
f 9/9/19 23/24/19 21/22/19 6/6/19
f 20/21/20 3/3/20 48/58/20 45/55/20
f 34/40/21 31/35/21 29/33/21 32/37/21
f 33/39/22 28/30/22 31/35/22 34/40/22
f 26/28/22 33/39/22 34/40/22 30/34/22
f 30/34/21 34/40/21 32/37/21 27/29/21
f 8/8/23 37/45/23 54/66/23 49/59/23
f 10/10/24 1/1/24 26/28/24 30/34/24
f 5/5/25 11/11/25 31/36/25 28/31/25
f 3/3/26 10/10/26 30/34/26 27/29/26
f 42/52/27 39/48/27 35/41/27 41/51/27
f 40/49/28 17/18/28 39/48/28 42/52/28
f 36/43/28 40/49/28 42/52/28 38/46/28
f 38/46/27 42/52/27 41/51/27 37/44/27
f 7/7/29 19/20/29 43/53/29 44/54/29
f 8/8/30 9/9/30 38/47/30 37/45/30
f 2/2/31 12/12/31 39/48/31 17/18/31
f 13/13/11 2/2/11 17/18/11 40/50/11
f 53/64/32 46/56/32 55/67/32 65/82/32
f 48/58/33 52/63/33 64/81/33 59/72/33
f 43/53/34 49/59/34 60/73/34 25/27/34
f 54/65/35 47/57/35 58/70/35 66/83/35
f 52/63/36 51/62/36 63/80/36 64/81/36
f 50/60/37 44/54/37 15/16/37 62/76/37
f 47/57/35 53/64/35 65/82/35 58/70/35
f 46/56/38 45/55/38 14/14/38 55/67/38
f 35/41/39 4/4/39 46/56/39 53/64/39
f 41/51/10 35/41/10 53/64/10 47/57/10
f 3/3/40 27/29/40 52/63/40 48/58/40
f 19/20/41 8/8/41 49/59/41 43/53/41
f 61/75/42 56/68/42 15/15/42 25/26/42
f 55/67/43 57/69/43 58/71/43 65/82/43
f 56/68/44 59/72/44 64/81/44 63/79/44
f 14/14/42 59/72/42 56/68/42 61/75/42
f 55/67/45 14/14/45 61/75/45 57/69/45
f 57/69/45 61/75/45 25/26/45 60/74/45
f 15/15/44 56/68/44 63/79/44 62/77/44
f 57/69/43 60/74/43 66/84/43 58/71/43
f 45/55/46 48/58/46 59/72/46 14/14/46
f 44/54/47 43/53/47 25/27/47 15/16/47
f 51/62/36 50/61/36 62/78/36 63/80/36
f 49/59/48 54/66/48 66/85/48 60/73/48
f 60/74/49 57/69/49 55/67/49
