# Blender v3.1.2 OBJ File: 'Environment.blend'
# www.blender.org
mtllib TorchHolder.mtl
o Cylinder.001
v -18.288216 -1.136832 22.785652
v -18.288216 10.285816 23.309473
v -18.775843 -1.136832 22.654993
v -19.037752 10.285816 23.108635
v -19.132809 -1.136832 22.298027
v -19.586451 10.285816 22.559937
v -20.406834 -1.136832 22.419987
v -19.787289 10.285816 21.810400
v -20.122992 -1.136832 21.360678
v -19.586451 10.285816 21.060863
v -19.347525 -1.136832 20.585211
v -19.037752 10.285816 20.512165
v -18.288216 -1.136832 20.301371
v -18.288216 10.285816 20.311327
v -17.228909 -1.136832 20.585211
v -17.538679 10.285816 20.512165
v -16.453440 -1.136832 21.360678
v -16.989981 10.285816 21.060863
v -16.169600 -1.136832 22.419987
v -16.789143 10.285816 21.810400
v -17.443623 -1.136832 22.298027
v -16.989981 10.285816 22.559937
v -17.800589 -1.136832 22.654993
v -17.538679 10.285816 23.108635
v -18.288216 9.171724 22.785652
v -18.775843 9.171724 22.654993
v -19.132809 9.171724 22.298027
v -19.263468 9.171724 21.810400
v -19.132809 9.171724 21.322773
v -18.775843 9.171724 20.965807
v -18.288216 9.171724 20.835148
v -17.800589 9.171724 20.965807
v -17.443623 9.171724 21.322773
v -17.312963 9.171724 21.810400
v -17.443623 9.171724 22.298027
v -17.800589 9.171724 22.654993
v -18.832880 8.759035 22.753786
v -19.231602 8.759035 22.355064
v -19.377544 8.759035 21.810400
v -19.231602 8.759035 21.265736
v -18.832880 8.759035 20.867014
v -18.288216 8.759035 20.721071
v -17.743551 8.759035 20.867014
v -17.344830 8.759035 21.265736
v -17.198887 8.759035 21.810400
v -17.344830 8.759035 22.355064
v -17.743551 8.759035 22.753786
v -18.288216 8.759036 22.899729
v -18.832880 8.315075 22.753786
v -19.231602 8.315075 22.355064
v -19.377544 8.315075 21.810400
v -19.231602 8.315075 21.265736
v -18.832880 8.315075 20.867014
v -18.288216 8.315075 20.721071
v -17.743551 8.315075 20.867014
v -17.344830 8.315075 21.265736
v -17.198887 8.315075 21.810400
v -17.344830 8.315075 22.355064
v -17.743551 8.315075 22.753786
v -18.288216 8.315075 22.899729
v -18.926411 10.285816 22.915785
v -18.288216 10.285816 23.086788
v -19.393600 10.285816 22.448595
v -19.564604 10.285816 21.810400
v -19.393600 10.285816 21.172207
v -18.926411 10.285816 20.705015
v -18.288216 10.285816 20.534012
v -17.650021 10.285816 20.705015
v -17.182831 10.285816 21.172207
v -17.011827 10.285816 21.810400
v -17.182831 10.285816 22.448595
v -17.650021 10.285816 22.915785
v -18.562048 10.285816 22.284693
v -18.288216 10.285816 22.358065
v -18.762508 10.285816 22.084232
v -18.835880 10.285816 21.810400
v -18.762506 10.285816 21.536568
v -18.562048 10.285816 21.336109
v -18.288216 10.285816 21.262735
v -18.014383 10.285816 21.336109
v -17.813923 10.285816 21.536568
v -17.740551 10.285816 21.810400
v -17.813923 10.285816 22.084232
v -18.014383 10.285816 22.284693
v -19.037752 10.643867 23.108635
v -18.288216 10.643867 23.309473
v -19.586451 10.643867 22.559937
v -19.787289 10.643867 21.810400
v -19.586451 10.643867 21.060863
v -19.037752 10.643867 20.512165
v -18.288216 10.643867 20.311327
v -17.538679 10.643867 20.512165
v -16.989981 10.643867 21.060863
v -16.789143 10.643867 21.810400
v -16.989981 10.643867 22.559937
v -17.538679 10.643867 23.108635
v -18.926411 10.643867 22.915785
v -18.288216 10.643867 23.086788
v -19.393600 10.643867 22.448595
v -19.564604 10.643867 21.810400
v -19.393600 10.643867 21.172207
v -18.926411 10.643867 20.705015
v -18.288216 10.643867 20.534012
v -17.650021 10.643867 20.705015
v -17.182831 10.643867 21.172207
v -17.011827 10.643867 21.810400
v -17.182831 10.643867 22.448595
v -17.650021 10.643867 22.915785
v -18.786821 0.682717 22.674011
v -19.151827 0.682717 22.309006
v -19.285429 0.682717 21.810400
v -19.151827 0.682717 21.311794
v -18.786821 0.682717 20.946789
v -18.288216 0.682717 20.813187
v -17.789610 0.682717 20.946789
v -17.424604 0.682717 21.311794
v -17.291002 0.682717 21.810400
v -17.424604 0.682717 22.309006
v -17.789608 0.682717 22.674011
v -18.288216 0.682717 22.807613
vt 1.000000 0.951233
vt 1.000000 1.000000
vt 0.916667 1.000000
vt 0.916667 0.951233
vt 0.833333 1.000000
vt 0.833333 0.951233
vt 0.750000 1.000000
vt 0.750000 0.951233
vt 0.666667 1.000000
vt 0.666667 0.951233
vt 0.583333 1.000000
vt 0.583333 0.951233
vt 0.500000 1.000000
vt 0.500000 0.951233
vt 0.416667 1.000000
vt 0.416667 0.951233
vt 0.333333 1.000000
vt 0.333333 0.951233
vt 0.250000 1.000000
vt 0.250000 0.951233
vt 0.166667 1.000000
vt 0.166667 0.951233
vt 0.333333 1.000000
vt 0.250000 1.000000
vt 0.083333 1.000000
vt 0.083333 0.951233
vt 0.000000 1.000000
vt 0.000000 0.951233
vt 0.750000 0.490000
vt 0.870000 0.457846
vt 0.957846 0.370000
vt 0.990000 0.250000
vt 0.957846 0.130000
vt 0.870000 0.042154
vt 0.750000 0.010000
vt 0.630000 0.042154
vt 0.542154 0.130000
vt 0.510000 0.250000
vt 0.542154 0.370000
vt 0.630000 0.457846
vt 0.083333 0.932151
vt 0.000000 0.932151
vt 0.166667 0.932151
vt 0.250000 0.932151
vt 0.333333 0.932151
vt 0.416667 0.932151
vt 0.500000 0.932151
vt 0.583333 0.932151
vt 0.666667 0.932151
vt 0.750000 0.932151
vt 0.833333 0.932151
vt 0.916667 0.932151
vt 1.000000 0.932151
vt 1.000000 0.914753
vt 0.916667 0.914753
vt 0.833333 0.914753
vt 0.750000 0.914753
vt 0.666667 0.914753
vt 0.583333 0.914753
vt 0.500000 0.914753
vt 0.416667 0.914753
vt 0.333333 0.914753
vt 0.250000 0.914753
vt 0.166667 0.914753
vt 0.083333 0.914753
vt 0.000000 0.914753
vt 0.083333 0.579842
vt 0.000000 0.579842
vt 0.166667 0.579842
vt 0.250000 0.579842
vt 0.333333 0.579842
vt 0.416667 0.579842
vt 0.500000 0.579842
vt 0.583333 0.579842
vt 0.666667 0.579842
vt 0.750000 0.579842
vt 0.833333 0.579842
vt 0.916667 0.579842
vt 1.000000 0.579842
vt 0.666667 1.000000
vt 0.750000 1.000000
vt 0.750000 1.000000
vt 0.666667 1.000000
vt 0.750000 1.000000
vt 0.666667 1.000000
vt 0.500000 1.000000
vt 0.416667 1.000000
vt 0.416667 1.000000
vt 0.500000 1.000000
vt 0.166667 1.000000
vt 0.083333 1.000000
vt 0.583333 1.000000
vt 0.500000 1.000000
vt 0.583333 1.000000
vt 0.583333 1.000000
vt 1.000000 1.000000
vt 0.916667 1.000000
vt 0.666667 1.000000
vt 0.416667 1.000000
vt 0.833333 1.000000
vt 0.083333 1.000000
vt 0.000000 1.000000
vt 0.000000 1.000000
vt 0.083333 1.000000
vt 0.750000 1.000000
vt 0.370000 0.457846
vt 0.250000 0.490000
vt 0.130000 0.457846
vt 0.042154 0.370000
vt 0.010000 0.250000
vt 0.042154 0.130000
vt 0.130000 0.042154
vt 0.250000 0.010000
vt 0.370000 0.042154
vt 0.457846 0.130000
vt 0.490000 0.250000
vt 0.457846 0.370000
vt 0.166667 1.000000
vt 0.166667 1.000000
vt 0.083333 1.000000
vt 0.916667 1.000000
vt 1.000000 1.000000
vt 1.000000 1.000000
vt 0.916667 1.000000
vt 0.333333 1.000000
vt 0.416667 1.000000
vt 0.333333 1.000000
vt 0.583333 1.000000
vt 0.000000 1.000000
vt 0.833333 1.000000
vt 0.833333 1.000000
vt 0.250000 1.000000
vt 0.250000 1.000000
vt 0.500000 1.000000
vt 0.333333 1.000000
vt 0.250000 1.000000
vt 0.000000 1.000000
vt 1.000000 1.000000
vt 0.916667 1.000000
vt 0.833333 1.000000
vt 0.166667 1.000000
vt 1.000000 0.500000
vt 0.916667 0.500000
vt 0.833333 0.500000
vt 0.750000 0.500000
vt 0.666667 0.500000
vt 0.583333 0.500000
vt 0.500000 0.500000
vt 0.416667 0.500000
vt 0.333333 0.500000
vt 0.250000 0.500000
vt 0.166667 0.500000
vt 0.083333 0.500000
vt 0.000000 0.500000
vn -0.2357 -0.4135 0.8795
vn -0.6438 -0.4135 0.6438
vn -0.8795 -0.4135 0.2357
vn -0.8795 -0.4135 -0.2357
vn -0.6438 -0.4135 -0.6438
vn -0.2357 -0.4135 -0.8795
vn 0.2357 -0.4135 -0.8795
vn 0.6438 -0.4135 -0.6438
vn 0.8795 -0.4135 -0.2357
vn 0.8795 -0.4135 0.2357
vn 0.9659 0.0000 -0.2588
vn 0.6438 -0.4135 0.6438
vn 0.2357 -0.4135 0.8795
vn 0.0000 -1.0000 0.0000
vn 0.2501 0.2580 0.9332
vn 0.6832 0.2580 0.6832
vn 0.9332 0.2580 0.2501
vn 0.9332 0.2580 -0.2501
vn 0.6832 0.2580 -0.6832
vn 0.2501 0.2580 -0.9332
vn -0.2501 0.2580 -0.9332
vn -0.6832 0.2580 -0.6832
vn -0.9332 0.2580 -0.2501
vn -0.9332 0.2580 0.2501
vn -0.6832 0.2580 0.6832
vn -0.2501 0.2580 0.9332
vn -0.2588 0.0000 0.9659
vn -0.7071 0.0000 0.7071
vn -0.9659 0.0000 0.2588
vn -0.9659 0.0000 -0.2588
vn -0.7071 0.0000 -0.7071
vn -0.2588 0.0000 -0.9659
vn 0.2588 0.0000 -0.9659
vn 0.7071 0.0000 -0.7071
vn 0.9659 0.0000 0.2588
vn 0.7071 0.0000 0.7071
vn 0.2588 0.0000 0.9659
vn 0.2588 -0.0117 0.9659
vn 0.7071 -0.0117 0.7071
vn 0.9659 -0.0117 0.2588
vn 0.9659 -0.0117 -0.2588
vn 0.7071 -0.0117 -0.7071
vn 0.2588 -0.0117 -0.9659
vn -0.2588 -0.0117 -0.9659
vn -0.7071 -0.0117 -0.7071
vn -0.9659 -0.0117 -0.2588
vn -0.9659 -0.0117 0.2588
vn -0.7071 -0.0117 0.7071
vn -0.2588 -0.0117 0.9659
vn 0.0000 1.0000 0.0000
vn -0.2515 0.2308 0.9399
vn -0.8610 0.4533 -0.2307
vn -0.6656 0.3374 -0.6656
vn -0.2498 0.2622 -0.9321
vn 0.2498 0.2622 -0.9321
vn 0.6656 0.3374 -0.6656
vn 0.8610 0.4533 -0.2307
vn 0.2515 0.2308 0.9399
usemtl None
s off
f 25/1/1 2/2/1 4/3/1 26/4/1
f 26/4/2 4/3/2 6/5/2 27/6/2
f 27/6/3 6/5/3 8/7/3 28/8/3
f 28/8/4 8/7/4 10/9/4 29/10/4
f 29/10/5 10/9/5 12/11/5 30/12/5
f 30/12/6 12/11/6 14/13/6 31/14/6
f 31/14/7 14/13/7 16/15/7 32/16/7
f 32/16/8 16/15/8 18/17/8 33/18/8
f 33/18/9 18/17/9 20/19/9 34/20/9
f 34/20/10 20/19/10 22/21/10 35/22/10
f 20/19/11 18/17/11 93/23/11 94/24/11
f 35/22/12 22/21/12 24/25/12 36/26/12
f 36/26/13 24/25/13 2/27/13 25/28/13
f 1/29/14 3/30/14 5/31/14 7/32/14 9/33/14 11/34/14 13/35/14 15/36/14 17/37/14 19/38/14 21/39/14 23/40/14
f 47/41/15 36/26/15 25/28/15 48/42/15
f 46/43/16 35/22/16 36/26/16 47/41/16
f 45/44/17 34/20/17 35/22/17 46/43/17
f 44/45/18 33/18/18 34/20/18 45/44/18
f 43/46/19 32/16/19 33/18/19 44/45/19
f 42/47/20 31/14/20 32/16/20 43/46/20
f 41/48/21 30/12/21 31/14/21 42/47/21
f 40/49/22 29/10/22 30/12/22 41/48/22
f 39/50/23 28/8/23 29/10/23 40/49/23
f 38/51/24 27/6/24 28/8/24 39/50/24
f 37/52/25 26/4/25 27/6/25 38/51/25
f 48/53/26 25/1/26 26/4/26 37/52/26
f 60/54/27 48/53/27 37/52/27 49/55/27
f 49/55/28 37/52/28 38/51/28 50/56/28
f 50/56/29 38/51/29 39/50/29 51/57/29
f 51/57/30 39/50/30 40/49/30 52/58/30
f 52/58/31 40/49/31 41/48/31 53/59/31
f 53/59/32 41/48/32 42/47/32 54/60/32
f 54/60/33 42/47/33 43/46/33 55/61/33
f 55/61/34 43/46/34 44/45/34 56/62/34
f 56/62/11 44/45/11 45/44/11 57/63/11
f 57/63/35 45/44/35 46/43/35 58/64/35
f 58/64/36 46/43/36 47/41/36 59/65/36
f 59/65/37 47/41/37 48/42/37 60/66/37
f 119/67/38 59/65/38 60/66/38 120/68/38
f 118/69/39 58/64/39 59/65/39 119/67/39
f 117/70/40 57/63/40 58/64/40 118/69/40
f 116/71/41 56/62/41 57/63/41 117/70/41
f 115/72/42 55/61/42 56/62/42 116/71/42
f 114/73/43 54/60/43 55/61/43 115/72/43
f 113/74/44 53/59/44 54/60/44 114/73/44
f 112/75/45 52/58/45 53/59/45 113/74/45
f 111/76/46 51/57/46 52/58/46 112/75/46
f 110/77/47 50/56/47 51/57/47 111/76/47
f 109/78/48 49/55/48 50/56/48 110/77/48
f 120/79/49 60/54/49 49/55/49 109/78/49
f 65/80/50 64/81/50 76/82/50 77/83/50
f 10/9/30 8/7/30 88/84/30 89/85/30
f 67/86/27 68/87/27 104/88/27 103/89/27
f 24/25/36 22/21/36 95/90/36 96/91/36
f 14/13/32 12/11/32 90/92/32 91/93/32
f 66/94/37 67/86/37 103/89/37 102/95/37
f 4/3/27 2/2/27 86/96/27 85/97/27
f 65/80/36 66/94/36 102/95/36 101/98/36
f 18/17/34 16/15/34 92/99/34 93/23/34
f 8/7/29 6/5/29 87/100/29 88/84/29
f 72/101/32 62/102/32 98/103/32 108/104/32
f 64/81/35 65/80/35 101/98/35 100/105/35
f 73/106/50 74/107/50 84/108/50 83/109/50 82/110/50 81/111/50 80/112/50 79/113/50 78/114/50 77/115/50 76/116/50 75/117/50
f 72/101/50 71/118/50 83/119/50 84/120/50
f 61/121/50 62/122/50 74/123/50 73/124/50
f 69/125/50 68/87/50 80/126/50 81/127/50
f 66/94/50 65/80/50 77/83/50 78/128/50
f 62/102/50 72/101/50 84/120/50 74/129/50
f 63/130/50 61/121/50 73/124/50 75/131/50
f 70/132/50 69/125/50 81/127/50 82/133/50
f 67/86/50 66/94/50 78/128/50 79/134/50
f 64/81/50 63/130/50 75/131/50 76/82/50
f 71/118/50 70/132/50 82/133/50 83/119/50
f 68/87/50 67/86/50 79/134/50 80/126/50
f 94/24/50 93/23/50 105/135/50 106/136/50
f 93/23/50 92/99/50 104/88/50 105/135/50
f 92/99/50 91/93/50 103/89/50 104/88/50
f 91/93/50 90/92/50 102/95/50 103/89/50
f 90/92/50 89/85/50 101/98/50 102/95/50
f 89/85/50 88/84/50 100/105/50 101/98/50
f 86/137/50 96/91/50 108/104/50 98/103/50
f 85/97/50 86/96/50 98/138/50 97/139/50
f 88/84/50 87/100/50 99/140/50 100/105/50
f 96/91/50 95/90/50 107/141/50 108/104/50
f 87/100/50 85/97/50 97/139/50 99/140/50
f 95/90/50 94/24/50 106/136/50 107/141/50
f 68/87/28 69/125/28 105/135/28 104/88/28
f 62/122/33 61/121/33 97/139/33 98/138/33
f 69/125/29 70/132/29 106/136/29 105/135/29
f 6/5/28 4/3/28 85/97/28 87/100/28
f 16/15/33 14/13/33 91/93/33 92/99/33
f 61/121/34 63/130/34 99/140/34 97/139/34
f 2/27/37 24/25/37 96/91/37 86/137/37
f 70/132/30 71/118/30 107/141/30 106/136/30
f 63/130/11 64/81/11 100/105/11 99/140/11
f 12/11/31 10/9/31 89/85/31 90/92/31
f 22/21/35 20/19/35 94/24/35 95/90/35
f 71/118/31 72/101/31 108/104/31 107/141/31
f 1/142/49 120/79/49 109/78/49 3/143/49
f 3/143/48 109/78/48 110/77/48 5/144/48
f 5/144/51 110/77/51 111/76/51 7/145/51
f 7/145/52 111/76/52 112/75/52 9/146/52
f 9/146/53 112/75/53 113/74/53 11/147/53
f 11/147/54 113/74/54 114/73/54 13/148/54
f 13/148/55 114/73/55 115/72/55 15/149/55
f 15/149/56 115/72/56 116/71/56 17/150/56
f 17/150/57 116/71/57 117/70/57 19/151/57
f 19/151/58 117/70/58 118/69/58 21/152/58
f 21/152/39 118/69/39 119/67/39 23/153/39
f 23/153/38 119/67/38 120/68/38 1/154/38
